{"title":"The Hungover Games 2014 UNRATED HDRip x264 AC3-iMSTiLLPiSSED","uid":9553463,"size":1322505301,"categoryP":"video","categoryS":"movies","magnet":"?xt=urn:btih:299d6a11bc524b74e4094b8d1ffdae13385c023b&amp;dn=The+Hungover+Games+2014+UNRATED+HDRip+x264+AC3-iMSTiLLPiSSED&amp;tr=udp%3A%2F%2Ftracker.openbittorrent.com%3A80&amp;tr=udp%3A%2F%2Fopen.demonii.com%3A1337&amp;tr=udp%3A%2F%2Ftracker.coppersurfer.tk%3A6969&amp;tr=udp%3A%2F%2Fexodus.desync.com%3A6969","seeders":4,"leechers":0,"uploader":".SceNe.","files":2,"time":1391308998,"description":" &lt;a href=&quot;http://s12.postimg.org/do9obifh9/hung.jpg&quot; rel=&quot;nofollow&quot; target=&quot;_NEW&quot;&gt;http://s12.postimg.org/do9obifh9/hung.jpg&lt;/a&gt;\n\nSource - UNRATED.720p.WEB-DL.H264-LPM - Thx\n\nStoryline\nAfter Doug?s bachelor party in a rundown motel outside of Las Vegas, our hung-over partiers, Bradley, Ed, and Zach wake up in a strange room in an even stranger world? without Doug. After meeting the spoiled and immature Effing and the gruff, alcoholic Justmitch, our heroes put the pieces together and realize they are on a train headed for the deadly Hungover Games. It?s a fight for survival in the Arena as our guys go toe to toe against various Pop Culture Districts, including The Superhero District, The Middle Earth District, the Puppet District, and the Johnny Depp District. Will Bradley, Ed, and Zach find Doug and get him back for the wedding?\n\n &lt;a href=&quot;\nhttp://www.imdb.com/title/tt3138104/&quot; rel=&quot;nofollow&quot; target=&quot;_NEW&quot;&gt;\nhttp://www.imdb.com/title/tt3138104/&lt;/a&gt;\n\nGeneral\nComplete name                            : The Hungover Games 2014 UNRATED HDRip x264 AC3-iMSTiLLPiSSED.mkv\nFormat                                   : Matroska\nFormat version                           : Version 2\nFile size                                : 1.21 GiB\nDuration                                 : 1h 25mn\nOverall bit rate mode                    : Variable\nOverall bit rate                         : 2 028 Kbps\nEncoded date                             : UTC 2014-02-02 00:31:31\nWriting application                      : mkvmerge v6.5.0 ('Isn't she lovely') built on Oct 20 2013 12:50:05\nWriting library                          : libebml v1.3.0 + libmatroska v1.4.1\n\nVideo\nID                                       : 1\nFormat                                   : AVC\nFormat/Info                              : Advanced Video Codec\nFormat profile                           : &lt;a class=&quot;__cf_email__&quot; href=&quot;/cdn-cgi/l/email-protection&quot; data-cfemail=&quot;2f674648476f631b011e&quot;&gt;[email&amp;#160;protected]&lt;/a&gt;&lt;script cf-hash='f9e31' type=&quot;text/javascript&quot;&gt;\n/* &lt;![CDATA[ */!function(){try{var t=&quot;currentScript&quot;in document?document.currentScript:function(){for(var t=document.getElementsByTagName(&quot;script&quot;),e=t.length;e--;)if(t[e].getAttribute(&quot;cf-hash&quot;))return t[e]}();if(t&amp;&amp;t.previousSibling){var e,r,n,i,c=t.previousSibling,a=c.getAttribute(&quot;data-cfemail&quot;);if(a){for(e=&quot;&quot;,r=parseInt(a.substr(0,2),16),n=2;a.length-n;n+=2)i=parseInt(a.substr(n,2),16)^r,e+=String.fromCharCode(i);e=document.createTextNode(e),c.parentNode.replaceChild(e,c)}}}catch(u){}}();/* ]]&gt; */&lt;/script&gt;\nFormat settings, CABAC                   : Yes\nFormat settings, ReFrames                : 3 frames\nCodec ID                                 : V_MPEG4/ISO/AVC\nDuration                                 : 1h 25mn\nBit rate mode                            : Variable\nBit rate                                 : 1 603 Kbps\nMaximum bit rate                         : 40.0 Mbps\nWidth                                    : 704 pixels\nHeight                                   : 400 pixels\nDisplay aspect ratio                     : 16:9\nFrame rate mode                          : Constant\nFrame rate                               : 23.976 fps\nColor space                              : YUV\nChroma subsampling                       : 4:2:0\nBit depth                                : 8 bits\nScan type                                : Progressive\nBits/(Pixel*Frame)                       : 0.237\nStream size                              : 981 MiB (79%)\nWriting library                          : x264 core 140 r2377 1ca7bb9\n\nAudio\nID                                       : 2\nFormat                                   : AC-3\nFormat/Info                              : Audio Coding 3\nMode extension                           : CM (complete main)\nFormat settings, Endianness              : Big\nCodec ID                                 : A_AC3\nDuration                                 : 1h 25mn\nBit rate mode                            : Constant\nBit rate                                 : 384 Kbps\nChannel(s)                               : 6 channels\nChannel positions                        : Front: L C R, Side: L R, LFE\nSampling rate                            : 48.0 KHz\nBit depth                                : 16 bits\nCompression mode                         : Lossy\nStream size                              : 235 MiB (19%)\nLanguage                                 : English\nDefault                                  : Yes\nForced                                   : No\n\n &lt;a href=&quot;\nhttp://s1.postimg.org/cgle9r2hr/vlcsnap_2014_02_02_01h34m29s77.png&quot; rel=&quot;nofollow&quot; target=&quot;_NEW&quot;&gt;\nhttp://s1.postimg.org/cgle9r2hr/vlcsnap_2014_02_02_01h34m29s77.png&lt;/a&gt; &lt;a href=&quot;\nhttp://s1.postimg.org/7182v1ljz/vlcsnap_2014_02_02_01h33m54s12.png&quot; rel=&quot;nofollow&quot; target=&quot;_NEW&quot;&gt;\nhttp://s1.postimg.org/7182v1ljz/vlcsnap_2014_02_02_01h33m54s12.png&lt;/a&gt;","torrent":{"xt":"urn:btih:299d6a11bc524b74e4094b8d1ffdae13385c023b","amp;dn":"The+Hungover+Games+2014+UNRATED+HDRip+x264+AC3-iMSTiLLPiSSED","amp;tr":["udp%3A%2F%2Ftracker.openbittorrent.com%3A80","udp%3A%2F%2Fopen.demonii.com%3A1337","udp%3A%2F%2Ftracker.coppersurfer.tk%3A6969","udp%3A%2F%2Fexodus.desync.com%3A6969"],"infoHash":"299d6a11bc524b74e4094b8d1ffdae13385c023b","infoHashBuffer":{"type":"Buffer","data":[41,157,106,17,188,82,75,116,228,9,75,141,31,253,174,19,56,92,2,59]},"announce":[],"urlList":[]}}